<?xml version="1.0" standalone="no"?>
<!DOCTYPE svg PUBLIC "-//W3C//DTD SVG 20010904//EN"
 "http://www.w3.org/TR/2001/REC-SVG-20010904/DTD/svg10.dtd">
<svg version="1.0" xmlns="http://www.w3.org/2000/svg"
 width="150px" height="82px" viewBox="0 0 330 100"
 preserveAspectRatio="xMidYMid meet">
<metadata>
Created by potrace 1.10, written by Peter Selinger 2001-2011
</metadata>
<g transform="translate(0.000000,82.000000) scale(0.100000,-0.100000)"
fill="#ef595a" stroke="none">
<path d="M0 405 l0 -385 1500 0 1500 0 0 385 0 385 -1500 0 -1500 0 0 -385z
m2980 0 l0 -365 -1480 2 -1481 3 -2 363 -2 362 1483 0 1482 0 0 -365z"/>
<path d="M600 621 c-67 -21 -164 -72 -205 -107 -21 -18 -24 -23 -10 -18 11 4
45 14 77 23 49 13 58 13 73 1 10 -8 30 -13 45 -12 16 2 31 -2 35 -8 4 -7 24
-8 56 -4 34 5 49 3 49 -5 0 -6 -8 -11 -17 -11 -17 -1 -17 -1 0 -14 18 -14 25
-72 6 -61 -16 10 -59 -4 -59 -19 0 -26 28 -40 55 -28 23 11 25 10 25 -17 0
-25 -5 -30 -34 -35 -47 -9 -78 -36 -78 -69 0 -38 19 -57 59 -57 31 0 36 4 54
46 41 93 35 207 -19 347 -29 75 -30 75 -112 48z m81 -48 c15 -40 5 -56 -34
-50 -109 18 -129 36 -70 60 60 25 92 22 104 -10z m29 -317 c0 -21 -28 -46 -45
-40 -18 7 -19 26 -3 42 17 17 48 15 48 -2z"/>
<path d="M976 474 c-27 -26 -19 -52 24 -79 43 -27 50 -42 23 -52 -11 -4 -24 3
-40 23 l-23 29 0 -32 c0 -32 1 -33 45 -33 38 0 47 4 57 24 15 34 5 53 -37 73
-19 9 -35 23 -35 30 0 21 38 15 54 -9 l16 -22 0 29 c0 27 -4 30 -34 32 -21 2
-41 -3 -50 -13z"/>
<path d="M1176 483 c-9 -10 -7 -43 3 -43 5 0 11 7 15 15 3 8 10 15 16 15 15 0
13 -127 -2 -133 -7 -3 10 -6 37 -6 39 0 46 2 33 10 -24 14 -26 129 -3 129 9 0
18 -7 21 -15 9 -21 23 -9 17 14 -4 17 -14 20 -68 20 -35 0 -66 -3 -69 -6z"/>
<path d="M1410 480 c0 -5 5 -10 10 -10 15 0 13 -127 -2 -133 -7 -3 19 -6 58
-6 69 -1 72 0 76 24 6 31 -8 43 -17 15 -4 -14 -15 -20 -36 -20 -24 0 -29 4
-29 25 0 29 15 33 29 8 8 -14 10 -8 10 27 0 35 -2 41 -10 28 -14 -25 -31 -22
-27 5 4 30 47 37 55 8 7 -29 21 -17 15 14 -4 24 -8 25 -68 25 -36 0 -64 -4
-64 -10z"/>
<path d="M1660 480 c0 -5 5 -10 10 -10 14 0 12 -114 -2 -128 -9 -9 -2 -12 33
-12 35 1 40 3 27 11 -17 10 -26 59 -10 59 4 0 17 -16 30 -35 16 -26 29 -35 49
-35 l26 0 -20 23 c-33 36 -36 47 -19 66 21 23 11 49 -21 62 -32 12 -103 12
-103 -1z m96 -25 c7 -18 -12 -45 -32 -45 -14 0 -20 41 -7 53 11 12 33 7 39 -8z"/>
<path d="M1910 480 c0 -5 5 -10 10 -10 14 0 12 -114 -2 -128 -9 -9 4 -12 59
-12 l71 0 4 30 c5 35 -2 38 -20 10 -7 -11 -23 -20 -37 -20 -24 0 -25 3 -25 56
0 42 4 60 18 70 15 12 11 13 -30 14 -27 0 -48 -4 -48 -10z"/>
<path d="M2150 480 c0 -5 5 -10 10 -10 15 0 13 -127 -2 -133 -7 -3 10 -6 37
-6 39 0 46 2 33 10 -24 13 -26 117 -3 125 30 12 14 24 -30 24 -25 0 -45 -4
-45 -10z"/>
<path d="M2330 481 c0 -5 6 -11 14 -14 15 -6 11 -103 -6 -124 -8 -10 -3 -13
22 -13 27 0 30 2 21 14 -7 8 -11 34 -9 57 l3 43 45 -60 45 -59 3 73 c2 39 7
72 12 72 6 0 10 5 10 10 0 6 -11 10 -25 10 -27 0 -32 -9 -14 -27 6 -6 9 -23 7
-39 l-3 -29 -34 48 c-27 37 -40 47 -63 47 -15 0 -28 -4 -28 -9z"/>
<path d="M2619 461 c-33 -33 -35 -50 -14 -90 17 -33 33 -41 83 -41 43 0 68 13
57 29 -4 7 -1 18 5 26 11 13 6 15 -31 14 -24 0 -38 -3 -31 -6 17 -7 15 -53 -2
-53 -39 0 -64 88 -34 118 19 19 56 14 70 -8 18 -28 28 -25 28 8 0 26 -2 28
-51 30 -44 2 -54 -2 -80 -27z"/>
<path d="M339 435 c-62 -44 -108 -65 -146 -65 -28 0 -34 -3 -23 -10 8 -5 38
-10 67 -10 43 0 59 5 96 34 60 46 81 56 114 56 22 0 25 2 13 10 -28 18 -86 11
-121 -15z"/>
<path d="M410 344 c-19 -8 -44 -24 -56 -35 -12 -11 -44 -24 -70 -28 -36 -6
-44 -10 -31 -16 33 -14 93 2 147 39 29 20 63 36 76 36 13 0 24 5 24 10 0 15
-50 11 -90 -6z"/>
<path d="M461 240 c-24 -17 -55 -30 -68 -30 -12 0 -23 -4 -23 -10 0 -20 58
-10 96 16 21 15 53 33 69 40 l30 13 -30 0 c-17 1 -49 -12 -74 -29z"/>
</g>
</svg>
