<?xml version="1.0" standalone="no"?>
<!DOCTYPE svg PUBLIC "-//W3C//DTD SVG 20010904//EN"
 "http://www.w3.org/TR/2001/REC-SVG-20010904/DTD/svg10.dtd">
<svg version="1.0" xmlns="http://www.w3.org/2000/svg"
 width="300.000000pt" height="82.000000pt" viewBox="0 0 300.000000 82.000000"
 preserveAspectRatio="xMidYMid meet">

<g transform="translate(0.000000,82.000000) scale(0.100000,-0.100000)"
fill="#000000" stroke="none">
<path d="M2 408 l3 -383 2 378 3 377 1488 -2 1487 -3 0 -373 c0 -204 3 -372 8
-372 4 0 7 171 7 380 l0 380 -1500 0 -1500 0 2 -382z"/>
<path d="M610 621 c-64 -21 -154 -65 -190 -94 -20 -16 -21 -19 -5 -13 38 14
122 19 129 7 4 -6 22 -11 41 -11 18 0 35 -4 37 -9 2 -5 24 -6 51 -1 l47 7 0
-54 c0 -53 0 -53 -31 -53 -24 0 -30 -4 -27 -17 2 -13 13 -18 36 -18 18 0 32
-5 32 -12 0 -6 3 -18 6 -26 4 -10 -7 -17 -40 -26 -52 -13 -77 -43 -69 -83 4
-20 13 -29 34 -33 16 -4 33 -4 38 -1 46 29 65 194 36 304 -21 76 -53 152 -63
151 -4 0 -32 -9 -62 -18z"/>
<path d="M605 470 c-3 -5 -1 -10 4 -10 6 0 11 5 11 10 0 6 -2 10 -4 10 -3 0
-8 -4 -11 -10z"/>
<path d="M977 474 c-20 -21 -5 -54 38 -83 41 -28 45 -29 45 -11 0 12 -13 28
-32 40 -18 11 -35 29 -38 41 -3 11 -8 17 -13 13z"/>
<path d="M1180 469 c0 -5 5 -7 10 -4 6 3 10 8 10 11 0 2 -4 4 -10 4 -5 0 -10
-5 -10 -11z"/>
<path d="M1230 410 c0 -56 3 -70 15 -70 12 0 15 14 15 70 0 56 -3 70 -15 70
-12 0 -15 -14 -15 -70z"/>
<path d="M1440 410 c0 -56 3 -70 15 -70 12 0 15 14 15 70 0 56 -3 70 -15 70
-12 0 -15 -14 -15 -70z"/>
<path d="M1680 410 c0 -56 3 -70 15 -70 10 0 15 10 15 30 0 17 4 30 8 30 5 0
18 -13 30 -30 13 -16 30 -30 38 -30 12 0 11 6 -7 31 -21 29 -21 33 -6 44 29
21 14 65 -22 65 -13 0 -13 -2 -3 -9 22 -13 11 -56 -15 -59 -20 -3 -23 1 -23
32 0 25 -4 36 -15 36 -12 0 -15 -14 -15 -70z"/>
<path d="M1938 410 c3 -52 7 -70 18 -70 11 0 14 16 14 70 0 60 -3 70 -17 70
-16 0 -18 -9 -15 -70z"/>
<path d="M2180 410 c0 -56 3 -70 15 -70 12 0 15 14 15 70 0 56 -3 70 -15 70
-12 0 -15 -14 -15 -70z"/>
<path d="M2354 471 c3 -5 19 -24 35 -43 16 -18 39 -44 50 -58 l20 -25 1 28 c0
15 -3 27 -7 27 -5 0 -21 18 -37 40 -17 22 -38 40 -49 40 -10 0 -16 -4 -13 -9z"/>
<path d="M2621 454 c-30 -38 -24 -93 11 -107 10 -3 12 9 10 50 -3 32 1 59 8
68 8 10 9 15 2 15 -6 0 -20 -12 -31 -26z"/>
<path d="M2725 471 c-3 -5 -1 -12 5 -16 5 -3 10 1 10 9 0 18 -6 21 -15 7z"/>
<path d="M371 449 c-13 -5 -45 -25 -71 -44 -26 -19 -58 -35 -71 -35 -19 -1
-21 -2 -8 -10 23 -13 87 5 118 33 14 14 41 32 59 41 17 9 32 19 32 21 0 8 -33
5 -59 -6z"/>
<path d="M2710 364 c0 -31 23 -28 28 4 2 15 -2 22 -12 22 -11 0 -16 -9 -16
-26z"/>
<path d="M970 350 c0 -5 5 -10 11 -10 5 0 7 5 4 10 -3 6 -8 10 -11 10 -2 0 -4
-4 -4 -10z"/>
<path d="M410 339 c-13 -6 -31 -16 -40 -24 -8 -7 -29 -21 -45 -29 -29 -15 -29
-16 -6 -16 13 0 38 11 55 23 17 13 45 31 61 40 33 18 15 22 -25 6z"/>
<path d="M486 247 c-81 -46 -82 -47 -65 -47 9 0 27 8 40 19 13 10 38 25 54 34
17 9 26 16 20 16 -5 0 -27 -10 -49 -22z"/>
</g>
</svg>
