<?xml version="1.0" encoding="UTF-8"?>
<!-- Uploaded to: SVG Repo, www.svgrepo.com, Transformed by: SVG Repo Tools -->
<svg width="35px" height="35px" viewBox="-2 0 36 36" version="1.1" xmlns="http://www.w3.org/2000/svg" xmlns:xlink="http://www.w3.org/1999/xlink"> 
    <title>open-envelope</title>
    <desc>Created with Sketch.</desc>
    <g id="icons" stroke="none" stroke-width="1" fill="none" fill-rule="evenodd">
        <g id="ui-gambling-website-lined-icnos-casinoshunter" transform="translate(-864.000000, -282.000000)" fill="#1bc5dc" fill-rule="nonzero">
            <g id="square-filled" transform="translate(50.000000, 120.000000)">
                <path d="M843,176 C844.656854,176 846,177.343146 846,179 L846,195 C846,196.656854 844.656854,198 843,198 L817,198 C815.343146,198 814,196.656854 814,195 L814,179 C814,177.343146 815.343146,176 817,176 L817,165 C817,163.343146 818.2934,162 819.888889,162 L837.23926,162 C837.707727,162 838.160134,162.177317 838.511777,162.498753 L842.346591,166.004143 C842.761968,166.383838 843,166.930731 843,167.505391 L843,176 Z M839.649,194 L820.35,194 L817.850781,196 L842.149219,196 L839.649,194 Z M816.019661,178.805377 L816.006728,178.883379 C816.002284,178.921636 816,178.960551 816,179 L816,195 C816,195.068076 816.006802,195.134562 816.019764,195.198818 C816.147085,194.904701 816.345372,194.643077 816.601391,194.438262 L825.899,186.999 L816.601391,179.561738 C816.340238,179.352815 816.145336,179.09177 816.019661,178.805377 Z M843.980236,178.801182 L843.951824,178.866378 C843.823474,179.133425 843.63582,179.371969 843.3986,179.561745 L834.1,186.999 L843.398609,194.438262 C843.659762,194.647185 843.854664,194.90823 843.980339,195.194623 C843.993474,195.131834 844,195.066679 844,195 L844,179 C844,178.931924 843.993198,178.865438 843.980236,178.801182 Z M829.999694,186.28087 L820.351,193.999 L839.648,193.999 L829.999694,186.28087 Z M836.259,164 L819.888889,164 C819.357059,164 818.925926,164.447715 818.925926,165 L818.925,178.86 L827.499,185.719 L828.75061,184.718887 L828.789,184.69 L828.800725,184.681308 L828.822,184.666 L828.89102,184.616169 C828.902176,184.608728 828.913388,184.601409 828.924656,184.594215 L828.956509,184.574359 L829.075294,184.507032 L829.133981,184.477696 C829.165658,184.462402 829.197378,184.448177 829.229368,184.434819 C829.25279,184.425084 829.276449,184.415727 829.300234,184.406841 C829.323759,184.398025 829.347472,184.389681 829.371301,184.381798 C829.403471,184.371161 829.435809,184.361364 829.468314,184.352407 C829.488042,184.346986 829.507775,184.341877 829.527565,184.337076 C829.566212,184.327667 829.605242,184.319422 829.644425,184.312357 C829.656845,184.310156 829.669199,184.30805 829.681567,184.30606 C829.717,184.30032 829.752615,184.295571 829.7883,184.291785 C829.813988,184.289099 829.839703,184.286871 829.865445,184.285141 C829.884107,184.283851 829.903161,184.282842 829.922221,184.282105 C829.958404,184.280737 829.994188,184.280314 830.02996,184.280849 C830.048798,184.28112 830.0678,184.281676 830.08679,184.282502 C830.121175,184.283992 830.155456,184.28636 830.18967,184.28961 L830.291716,184.301992 C830.306524,184.304124 830.321472,184.306494 830.336398,184.309034 C830.378546,184.316276 830.420173,184.324743 830.461541,184.334542 C830.475151,184.337686 830.488783,184.341064 830.502386,184.344588 C830.534555,184.353007 830.56672,184.362206 830.598679,184.372223 C830.621858,184.379394 830.64481,184.387048 830.667646,184.39513 C830.682081,184.400335 830.69651,184.405629 830.710887,184.411094 C830.799858,184.444815 830.886979,184.485234 830.971474,184.532239 C831.020348,184.559497 831.067809,184.588541 831.114246,184.619719 L831.24939,184.718887 L832.5,185.719 L841.074,178.86 L841.074,170 L838.81978,170 C837.413359,170 836.341236,168.710688 836.263748,167.160652 L836.259259,166.980703 L836.259,164 Z M829.044348,184.523611 L828.956509,184.574359 L828.998992,184.548999 L829.036967,184.52757 L829.044348,184.523611 Z M838.185,164.865 L838.185185,166.980703 C838.185185,167.535984 838.46679,167.934644 838.749297,167.992691 L838.81978,168 L841.074,168 L841.074074,167.505391 L838.185,164.865 Z" id="open-envelope"></path>
            </g>
        </g>
    </g>
</svg>