<?xml version="1.0" encoding="UTF-8"?>
<!-- Uploaded to: SVG Repo, www.svgrepo.com, Transformed by: SVG Repo Tools -->
<svg width="35px" height="35px" viewBox="0 0 20 20" version="1.1" xmlns="http://www.w3.org/2000/svg" xmlns:xlink="http://www.w3.org/1999/xlink">

    <title>communication / 18 - communication, call, call out, contact, phone icon</title>
    <g id="Free-Icons" stroke="none" stroke-width="1" fill="none" fill-rule="evenodd" stroke-linecap="round" stroke-linejoin="round">
        <g transform="translate(-821.000000, -230.000000)" id="Group" stroke="#1bc5dc" stroke-width="1">
            <g transform="translate(819.000000, 228.000000)" id="Shape">
                <polyline points="15 3.00140369 21 3 20.9985115 8.65825794"></polyline>
                <path d="M3.37340954,3.66347908 C3.40787577,3.485069 3.55974508,3.35151448 3.74396838,3.33760804 L8.19635574,3.001528 C8.62929163,2.96884703 9.01278554,3.27428723 9.06997279,3.69733504 L9.59948509,7.6144501 C9.63302728,7.86258149 9.54708212,8.11191268 9.36699693,8.28890987 L7.62453427,10.0014938 C7.30504828,10.3155014 7.30504828,10.8246083 7.62453427,11.138616 L13.0351592,16.4564625 C13.3546452,16.7704701 13.8726343,16.7704701 14.1921203,16.4564625 L15.9577477,14.7211111 C16.1245838,14.5571357 16.3553266,14.4719396 16.5907441,14.4873926 L20.2372001,14.7267491 C20.6701106,14.7551657 21.0051574,15.1108082 21.00078,15.5372211 L20.9519068,20.2472963 C20.9499162,20.4393056 20.8100517,20.6031281 20.6180058,20.6383953 C15.8264987,21.51825 10.6764947,20.9404181 6.87186521,17.2010282 C3.06133612,13.4558399 2.46314132,8.37536644 3.37340954,3.66347908 Z"></path>
                <line x1="21" y1="3" x2="15" y2="9"></line>
            </g>
        </g>
    </g>
</svg>