<!-- Uploaded to: SVG Repo, www.svgrepo.com, Transformed by: SVG Repo Tools -->
<svg width="35px" height="35px" viewBox="0 0 24 24" xmlns="http://www.w3.org/2000/svg" fill="none" stroke="#1bc5dc" stroke-width="1" stroke-linecap="round" stroke-linejoin="miter"><circle cx="10" cy="6" r="4" fill="#cffff" opacity="0.1" stroke-width="0">
</circle><circle cx="10" cy="6" r="4"></circle><path d="M18,22a7.89,7.89,0,0,0-8-8,7.89,7.89,0,0,0-8,8Z" fill="#c6fbff" opacity="0.1" stroke-width="0"></path><path d="M18,22a7.89,7.89,0,0,0-8-8,7.89,7.89,0,0,0-8,8Z"></path><path d="M16.83,3.17a4.13,4.13,0,0,1,.86,1.27,4.08,4.08,0,0,1,0,3.12,4.13,4.13,0,0,1-.86,1.27"></path><path d="M21.8,19.86A11.12,11.12,0,0,0,18,13.5"></path></svg>